%TF.GenerationSoftware,KiCad,Pcbnew,(6.0.10)*%
%TF.CreationDate,2023-02-16T14:17:13-08:00*%
%TF.ProjectId,lab4e2,6c616234-6532-42e6-9b69-6361645f7063,rev?*%
%TF.SameCoordinates,Original*%
%TF.FileFunction,Drillmap*%
%TF.FilePolarity,Positive*%
%FSLAX45Y45*%
G04 Gerber Fmt 4.5, Leading zero omitted, Abs format (unit mm)*
G04 Created by KiCad (PCBNEW (6.0.10)) date 2023-02-16 14:17:13*
%MOMM*%
%LPD*%
G01*
G04 APERTURE LIST*
%ADD10C,0.200000*%
G04 APERTURE END LIST*
D10*
X257619Y-310476D02*
X257619Y-110476D01*
X305238Y-110476D01*
X333810Y-120000D01*
X352857Y-139048D01*
X362381Y-158095D01*
X371905Y-196190D01*
X371905Y-224762D01*
X362381Y-262857D01*
X352857Y-281905D01*
X333810Y-300952D01*
X305238Y-310476D01*
X257619Y-310476D01*
X457619Y-310476D02*
X457619Y-177143D01*
X457619Y-215238D02*
X467143Y-196190D01*
X476667Y-186667D01*
X495714Y-177143D01*
X514762Y-177143D01*
X581429Y-310476D02*
X581429Y-177143D01*
X581429Y-110476D02*
X571905Y-120000D01*
X581429Y-129524D01*
X590952Y-120000D01*
X581429Y-110476D01*
X581429Y-129524D01*
X705238Y-310476D02*
X686190Y-300952D01*
X676667Y-281905D01*
X676667Y-110476D01*
X810000Y-310476D02*
X790952Y-300952D01*
X781428Y-281905D01*
X781428Y-110476D01*
X1038571Y-310476D02*
X1038571Y-110476D01*
X1105238Y-253333D01*
X1171905Y-110476D01*
X1171905Y-310476D01*
X1352857Y-310476D02*
X1352857Y-205714D01*
X1343333Y-186667D01*
X1324286Y-177143D01*
X1286190Y-177143D01*
X1267143Y-186667D01*
X1352857Y-300952D02*
X1333810Y-310476D01*
X1286190Y-310476D01*
X1267143Y-300952D01*
X1257619Y-281905D01*
X1257619Y-262857D01*
X1267143Y-243809D01*
X1286190Y-234286D01*
X1333810Y-234286D01*
X1352857Y-224762D01*
X1448095Y-177143D02*
X1448095Y-377143D01*
X1448095Y-186667D02*
X1467143Y-177143D01*
X1505238Y-177143D01*
X1524286Y-186667D01*
X1533809Y-196190D01*
X1543333Y-215238D01*
X1543333Y-272381D01*
X1533809Y-291429D01*
X1524286Y-300952D01*
X1505238Y-310476D01*
X1467143Y-310476D01*
X1448095Y-300952D01*
X1629048Y-291429D02*
X1638571Y-300952D01*
X1629048Y-310476D01*
X1619524Y-300952D01*
X1629048Y-291429D01*
X1629048Y-310476D01*
X1629048Y-186667D02*
X1638571Y-196190D01*
X1629048Y-205714D01*
X1619524Y-196190D01*
X1629048Y-186667D01*
X1629048Y-205714D01*
M02*
